<svg width="210" height="52.682" xmlns="http://www.w3.org/2000/svg" viewBox="0 0 210 52.682" role="presentation" aria-hidden="true"><g transform="translate(55.382 25.563)"><path class="svgFill" fill="#000000" d="M352.65,97.531v4.215h-2.035v3.488h2.035V111.4a5.083,5.083,0,0,0,1.308,3.735,4.8,4.8,0,0,0,3.575,1.322,7.59,7.59,0,0,0,1.744-.174,6.426,6.426,0,0,0,1.221-.407v-3.662a2.4,2.4,0,0,1-.756.334,3.319,3.319,0,0,1-.814.1,2.153,2.153,0,0,1-1.555-.494,2.244,2.244,0,0,1-.509-1.657v-5.261H360.5v-3.488h-3.633V97.531Zm-13.268,10.958a3.5,3.5,0,0,1,.741-2.369,2.466,2.466,0,0,1,1.962-.857,2.406,2.406,0,0,1,1.918.77,3.25,3.25,0,0,1,.669,2.195V116.1h4.244v-8.865a6.205,6.205,0,0,0-1.41-4.3,4.952,4.952,0,0,0-3.88-1.57,5.155,5.155,0,0,0-2.514.581,4.71,4.71,0,0,0-1.729,1.628v-1.831h-4.244V116.1h4.244Zm-11.772.843a3.6,3.6,0,0,1-.727,2.4,2.422,2.422,0,0,1-1.948.858,2.3,2.3,0,0,1-1.875-.785,3.356,3.356,0,0,1-.654-2.209v-7.848h-4.243v8.865a6.245,6.245,0,0,0,1.4,4.3,4.9,4.9,0,0,0,3.866,1.57,5,5,0,0,0,2.485-.6,4.682,4.682,0,0,0,1.7-1.613V116.1h4.243V101.746H327.61Zm-16.3,1.046a3.9,3.9,0,0,1-.785,1.177,3.66,3.66,0,0,1-5.232,0,3.891,3.891,0,0,1-.785-1.177,3.779,3.779,0,0,1,0-2.907,3.9,3.9,0,0,1,.785-1.177,3.659,3.659,0,0,1,5.232,0,3.913,3.913,0,0,1,.785,1.177,3.777,3.777,0,0,1,0,2.907M304.36,122.15v-7.906a4.51,4.51,0,0,0,1.991,1.671,6.593,6.593,0,0,0,2.66.538,6.239,6.239,0,0,0,2.688-.581,6.7,6.7,0,0,0,2.151-1.6,7.559,7.559,0,0,0,1.439-2.383,8.221,8.221,0,0,0,.523-2.965,8.34,8.34,0,0,0-.523-2.979,7.355,7.355,0,0,0-1.439-2.383,6.821,6.821,0,0,0-2.151-1.584,6.239,6.239,0,0,0-2.688-.581,6.17,6.17,0,0,0-2.66.581,4.891,4.891,0,0,0-1.991,1.686v-1.919h-4.214v20.4Zm-9.647-21.015a2.237,2.237,0,0,1,.7-1.86,2.678,2.678,0,0,1,1.715-.552,3.366,3.366,0,0,1,1.628.378V95.5a5.033,5.033,0,0,0-2.354-.465,5.832,5.832,0,0,0-4.316,1.584,6.073,6.073,0,0,0-1.584,4.49v.64h-2.035v3.488H290.5V116.1h4.215V105.233h3.721v-3.488h-3.721ZM276.9,107.326a2.439,2.439,0,0,1,.334-.988,3.469,3.469,0,0,1,1.7-1.439,3.5,3.5,0,0,1,3.372.523,2.88,2.88,0,0,1,1.017,1.9Zm6.51,3.924a3.987,3.987,0,0,1-1.192,1.279,3.361,3.361,0,0,1-1.889.465,3.658,3.658,0,0,1-2.34-.828,3.148,3.148,0,0,1-.77-.915,2.908,2.908,0,0,1-.349-1.163h10.551a3.193,3.193,0,0,0,.044-.407q.014-.261.015-.639a8.62,8.62,0,0,0-.538-3.1,7.262,7.262,0,0,0-1.5-2.427,6.688,6.688,0,0,0-2.311-1.584,7.624,7.624,0,0,0-2.98-.567,7.545,7.545,0,0,0-2.95.567,7.156,7.156,0,0,0-2.354,1.584,7.361,7.361,0,0,0-1.57,2.4,7.844,7.844,0,0,0-.567,3.009,8.028,8.028,0,0,0,.567,3.052,7.164,7.164,0,0,0,1.57,2.4,6.975,6.975,0,0,0,2.4,1.555,8.311,8.311,0,0,0,3.081.552,7.756,7.756,0,0,0,4.055-1.017,6.749,6.749,0,0,0,2.6-2.791ZM270.468,96.644a2.438,2.438,0,0,0-.523-.785,2.634,2.634,0,0,0-.785-.538,2.433,2.433,0,0,0-1.947,0,2.624,2.624,0,0,0-.785.538,2.455,2.455,0,0,0,0,3.459,2.618,2.618,0,0,0,.785.538,2.433,2.433,0,0,0,1.947,0,2.628,2.628,0,0,0,.785-.538,2.458,2.458,0,0,0,.523-2.674m-.16,5.1h-4.243V116.1h4.243Zm-16.949,6.743a3.517,3.517,0,0,1,.741-2.354,2.48,2.48,0,0,1,1.991-.872,2.37,2.37,0,0,1,1.889.77,3.2,3.2,0,0,1,.668,2.165V116.1h4.244v-8.865a6.2,6.2,0,0,0-1.41-4.3,4.951,4.951,0,0,0-3.88-1.57,5.157,5.157,0,0,0-2.514.581,4.717,4.717,0,0,0-1.729,1.628V95.758h-4.244V116.1h4.244Zm-17.843,3.517a6.886,6.886,0,0,0,1.584,2.383,7.241,7.241,0,0,0,2.413,1.541,8.231,8.231,0,0,0,3.052.552,8.336,8.336,0,0,0,1.874-.218,6.751,6.751,0,0,0,1.817-.712v-4.011a6.07,6.07,0,0,1-1.482.8,4.689,4.689,0,0,1-1.657.305,4.26,4.26,0,0,1-1.555-.276,3.737,3.737,0,0,1-1.235-.77,3.457,3.457,0,0,1-.814-1.177,4,4,0,0,1,0-2.994,3.473,3.473,0,0,1,.814-1.177,3.762,3.762,0,0,1,1.235-.77,4.271,4.271,0,0,1,1.555-.276,5.314,5.314,0,0,1,3.11,1.046v-3.982a6.028,6.028,0,0,0-1.729-.683,8.308,8.308,0,0,0-1.875-.218,8.217,8.217,0,0,0-3.1.567,7.165,7.165,0,0,0-2.427,1.584,7.239,7.239,0,0,0-1.584,2.4,7.85,7.85,0,0,0-.567,3.009,8.115,8.115,0,0,0,.567,3.081m-1.689-10.493a1.138,1.138,0,0,0-.276-.058,3.514,3.514,0,0,0-.451-.029,4.374,4.374,0,0,0-2.471.712,4.642,4.642,0,0,0-1.657,1.962v-2.354h-4.186V116.1H229v-5.842a5.166,5.166,0,0,1,.988-3.343,3.354,3.354,0,0,1,2.761-1.221,2.521,2.521,0,0,1,1.076.175Zm-23.442,5.958a3.9,3.9,0,0,1,.785-1.177,3.659,3.659,0,0,1,5.232,0,3.91,3.91,0,0,1,.785,1.177,3.774,3.774,0,0,1,0,2.907,3.9,3.9,0,0,1-.785,1.177,3.66,3.66,0,0,1-5.232,0,3.889,3.889,0,0,1-.785-1.177,3.78,3.78,0,0,1,0-2.907m6.947-5.726v1.86a4.679,4.679,0,0,0-1.991-1.657,6.445,6.445,0,0,0-2.659-.552,6.235,6.235,0,0,0-2.689.581,6.713,6.713,0,0,0-2.151,1.6,7.566,7.566,0,0,0-1.439,2.383,8.218,8.218,0,0,0-.523,2.965,8.329,8.329,0,0,0,.523,2.979,7.354,7.354,0,0,0,1.439,2.384,6.8,6.8,0,0,0,2.151,1.584,6.236,6.236,0,0,0,2.689.581,6.172,6.172,0,0,0,2.659-.581,4.884,4.884,0,0,0,1.991-1.686V116.1h4.156V101.746Z" transform="translate(-205.88 -95.031)"></path></g><rect class="svgFill" fill="#000000" width="5.165" height="46.464" transform="translate(30.986)"></rect><rect class="svgFill" fill="#000000" width="5.165" height="30.895" transform="translate(41.315)"></rect><rect class="svgFill" fill="#000000" width="5.164" height="10.329" transform="translate(41.315 20.599)"></rect><rect class="svgFill" fill="#000000" width="5.164" height="31.138" transform="translate(20.657 15.326)"></rect><rect class="svgFill" fill="#000000" width="5.165" height="30.895" transform="translate(10.329)"></rect><rect class="svgFill" fill="#000000" width="5.165" height="30.698" transform="translate(0 15.766)"></rect></svg>